<mxfile host="app.diagrams.net" agent="Mozilla/5.0 (X11; Linux x86_64) AppleWebKit/537.36 (KHTML, like Gecko) Chrome/135.0.0.0 Safari/537.36" version="26.2.14">
  <diagram name="Page-1" id="dyTkN7fSfrsuP2NaWEk3">
    <mxGraphModel dx="984" dy="551" grid="1" gridSize="10" guides="1" tooltips="1" connect="1" arrows="1" fold="1" page="1" pageScale="1" pageWidth="827" pageHeight="1169" math="0" shadow="0">
      <root>
        <mxCell id="0" />
        <mxCell id="1" parent="0" />
        <mxCell id="hI0ftxPOV4METjH0Sqbu-1" value="Admin" style="shape=umlActor;verticalLabelPosition=bottom;verticalAlign=top;html=1;outlineConnect=0;" vertex="1" parent="1">
          <mxGeometry x="50" y="100" width="30" height="60" as="geometry" />
        </mxCell>
        <mxCell id="hI0ftxPOV4METjH0Sqbu-2" value="Ticketing System" style="rounded=0;whiteSpace=wrap;html=1;" vertex="1" parent="1">
          <mxGeometry x="200" y="100" width="120" height="60" as="geometry" />
        </mxCell>
        <mxCell id="hI0ftxPOV4METjH0Sqbu-3" value="Database" style="rounded=0;whiteSpace=wrap;html=1;" vertex="1" parent="1">
          <mxGeometry x="680" y="100" width="120" height="60" as="geometry" />
        </mxCell>
        <mxCell id="hI0ftxPOV4METjH0Sqbu-4" value="Report Generator" style="rounded=0;whiteSpace=wrap;html=1;" vertex="1" parent="1">
          <mxGeometry x="440" y="100" width="120" height="60" as="geometry" />
        </mxCell>
        <mxCell id="hI0ftxPOV4METjH0Sqbu-6" value="" style="endArrow=none;dashed=1;html=1;rounded=0;" edge="1" parent="1" target="hI0ftxPOV4METjH0Sqbu-1">
          <mxGeometry width="50" height="50" relative="1" as="geometry">
            <mxPoint x="65" y="400" as="sourcePoint" />
            <mxPoint x="400" y="250" as="targetPoint" />
          </mxGeometry>
        </mxCell>
        <mxCell id="hI0ftxPOV4METjH0Sqbu-7" value="" style="endArrow=none;dashed=1;html=1;rounded=0;" edge="1" parent="1" target="hI0ftxPOV4METjH0Sqbu-2">
          <mxGeometry width="50" height="50" relative="1" as="geometry">
            <mxPoint x="260" y="400" as="sourcePoint" />
            <mxPoint x="400" y="250" as="targetPoint" />
          </mxGeometry>
        </mxCell>
        <mxCell id="hI0ftxPOV4METjH0Sqbu-8" value="" style="endArrow=none;dashed=1;html=1;rounded=0;" edge="1" parent="1" source="hI0ftxPOV4METjH0Sqbu-32" target="hI0ftxPOV4METjH0Sqbu-3">
          <mxGeometry width="50" height="50" relative="1" as="geometry">
            <mxPoint x="740" y="400" as="sourcePoint" />
            <mxPoint x="400" y="250" as="targetPoint" />
          </mxGeometry>
        </mxCell>
        <mxCell id="hI0ftxPOV4METjH0Sqbu-9" value="" style="endArrow=none;dashed=1;html=1;rounded=0;" edge="1" parent="1" source="hI0ftxPOV4METjH0Sqbu-29" target="hI0ftxPOV4METjH0Sqbu-4">
          <mxGeometry width="50" height="50" relative="1" as="geometry">
            <mxPoint x="500" y="400" as="sourcePoint" />
            <mxPoint x="400" y="250" as="targetPoint" />
          </mxGeometry>
        </mxCell>
        <mxCell id="hI0ftxPOV4METjH0Sqbu-11" value="" style="endArrow=classic;html=1;rounded=0;" edge="1" parent="1">
          <mxGeometry width="50" height="50" relative="1" as="geometry">
            <mxPoint x="80" y="200" as="sourcePoint" />
            <mxPoint x="240" y="200" as="targetPoint" />
          </mxGeometry>
        </mxCell>
        <mxCell id="hI0ftxPOV4METjH0Sqbu-14" value="Request Report" style="edgeLabel;html=1;align=center;verticalAlign=middle;resizable=0;points=[];" vertex="1" connectable="0" parent="hI0ftxPOV4METjH0Sqbu-11">
          <mxGeometry x="-0.0202" relative="1" as="geometry">
            <mxPoint as="offset" />
          </mxGeometry>
        </mxCell>
        <mxCell id="hI0ftxPOV4METjH0Sqbu-12" value="" style="endArrow=classic;html=1;rounded=0;" edge="1" parent="1">
          <mxGeometry width="50" height="50" relative="1" as="geometry">
            <mxPoint x="280" y="220" as="sourcePoint" />
            <mxPoint x="480" y="220" as="targetPoint" />
          </mxGeometry>
        </mxCell>
        <mxCell id="hI0ftxPOV4METjH0Sqbu-16" value="Generate Report" style="edgeLabel;html=1;align=center;verticalAlign=middle;resizable=0;points=[];" vertex="1" connectable="0" parent="hI0ftxPOV4METjH0Sqbu-12">
          <mxGeometry x="0.0076" y="-1" relative="1" as="geometry">
            <mxPoint as="offset" />
          </mxGeometry>
        </mxCell>
        <mxCell id="hI0ftxPOV4METjH0Sqbu-13" value="" style="endArrow=classic;html=1;rounded=0;" edge="1" parent="1">
          <mxGeometry width="50" height="50" relative="1" as="geometry">
            <mxPoint x="520" y="230" as="sourcePoint" />
            <mxPoint x="720" y="230" as="targetPoint" />
          </mxGeometry>
        </mxCell>
        <mxCell id="hI0ftxPOV4METjH0Sqbu-19" value="Fetch Report Data" style="edgeLabel;html=1;align=center;verticalAlign=middle;resizable=0;points=[];" vertex="1" connectable="0" parent="hI0ftxPOV4METjH0Sqbu-13">
          <mxGeometry x="-0.0067" relative="1" as="geometry">
            <mxPoint as="offset" />
          </mxGeometry>
        </mxCell>
        <mxCell id="hI0ftxPOV4METjH0Sqbu-20" value="" style="endArrow=classic;html=1;rounded=0;dashed=1;" edge="1" parent="1">
          <mxGeometry width="50" height="50" relative="1" as="geometry">
            <mxPoint x="720" y="280" as="sourcePoint" />
            <mxPoint x="520" y="280" as="targetPoint" />
          </mxGeometry>
        </mxCell>
        <mxCell id="hI0ftxPOV4METjH0Sqbu-21" value="Return Data" style="edgeLabel;html=1;align=center;verticalAlign=middle;resizable=0;points=[];" vertex="1" connectable="0" parent="hI0ftxPOV4METjH0Sqbu-20">
          <mxGeometry x="-0.1743" y="1" relative="1" as="geometry">
            <mxPoint as="offset" />
          </mxGeometry>
        </mxCell>
        <mxCell id="hI0ftxPOV4METjH0Sqbu-22" value="" style="endArrow=classic;html=1;rounded=0;dashed=1;" edge="1" parent="1">
          <mxGeometry width="50" height="50" relative="1" as="geometry">
            <mxPoint x="480" y="300" as="sourcePoint" />
            <mxPoint x="280" y="300" as="targetPoint" />
          </mxGeometry>
        </mxCell>
        <mxCell id="hI0ftxPOV4METjH0Sqbu-23" value="Return Compiled Report" style="edgeLabel;html=1;align=center;verticalAlign=middle;resizable=0;points=[];" vertex="1" connectable="0" parent="hI0ftxPOV4METjH0Sqbu-22">
          <mxGeometry x="-0.0314" y="1" relative="1" as="geometry">
            <mxPoint as="offset" />
          </mxGeometry>
        </mxCell>
        <mxCell id="hI0ftxPOV4METjH0Sqbu-24" value="" style="endArrow=classic;html=1;rounded=0;dashed=1;" edge="1" parent="1">
          <mxGeometry width="50" height="50" relative="1" as="geometry">
            <mxPoint x="240" y="320" as="sourcePoint" />
            <mxPoint x="80" y="320" as="targetPoint" />
          </mxGeometry>
        </mxCell>
        <mxCell id="hI0ftxPOV4METjH0Sqbu-25" value="Show Report" style="edgeLabel;html=1;align=center;verticalAlign=middle;resizable=0;points=[];" vertex="1" connectable="0" parent="hI0ftxPOV4METjH0Sqbu-24">
          <mxGeometry x="0.0024" y="-1" relative="1" as="geometry">
            <mxPoint as="offset" />
          </mxGeometry>
        </mxCell>
        <mxCell id="hI0ftxPOV4METjH0Sqbu-26" value="" style="rounded=0;whiteSpace=wrap;html=1;" vertex="1" parent="1">
          <mxGeometry x="60" y="190" width="10" height="20" as="geometry" />
        </mxCell>
        <mxCell id="hI0ftxPOV4METjH0Sqbu-28" value="" style="rounded=0;whiteSpace=wrap;html=1;" vertex="1" parent="1">
          <mxGeometry x="255" y="190" width="10" height="140" as="geometry" />
        </mxCell>
        <mxCell id="hI0ftxPOV4METjH0Sqbu-30" value="" style="endArrow=none;dashed=1;html=1;rounded=0;" edge="1" parent="1" target="hI0ftxPOV4METjH0Sqbu-29">
          <mxGeometry width="50" height="50" relative="1" as="geometry">
            <mxPoint x="500" y="400" as="sourcePoint" />
            <mxPoint x="500" y="160" as="targetPoint" />
          </mxGeometry>
        </mxCell>
        <mxCell id="hI0ftxPOV4METjH0Sqbu-29" value="" style="rounded=0;whiteSpace=wrap;html=1;" vertex="1" parent="1">
          <mxGeometry x="495" y="210" width="10" height="100" as="geometry" />
        </mxCell>
        <mxCell id="hI0ftxPOV4METjH0Sqbu-33" value="" style="endArrow=none;dashed=1;html=1;rounded=0;" edge="1" parent="1" target="hI0ftxPOV4METjH0Sqbu-32">
          <mxGeometry width="50" height="50" relative="1" as="geometry">
            <mxPoint x="740" y="400" as="sourcePoint" />
            <mxPoint x="740" y="160" as="targetPoint" />
          </mxGeometry>
        </mxCell>
        <mxCell id="hI0ftxPOV4METjH0Sqbu-32" value="" style="rounded=0;whiteSpace=wrap;html=1;" vertex="1" parent="1">
          <mxGeometry x="735" y="220" width="10" height="70" as="geometry" />
        </mxCell>
      </root>
    </mxGraphModel>
  </diagram>
</mxfile>
